<svg xmlns:mydata="http://www.w3.org/2000/svg" mydata:contrastcolor="ffffff" mydata:template="Default" mydata:presentation="2.5" mydata:layouttype="undefined" mydata:specialfontid="undefined" mydata:id1="421" mydata:id2="133" mydata:companyname="2baIt" mydata:companytagline="" version="1.1" xmlns="http://www.w3.org/2000/svg" xmlns:xlink="http://www.w3.org/1999/xlink" viewBox="0 0 550 470" style="background-color: rgb(0, 89, 79); background-image: radial-gradient(circle closest-side at center center, rgba(255, 255, 255, 0.07) 0%, rgba(255, 255, 255, 0) 100%);" width="640"  height="547" ><defs style="animation-play-state: paused;"><linearGradient id="fade-smooth-gradient" gradientUnits="userSpaceOnUse" x2="0" y2="0" style="animation-play-state: paused;">
                <stop offset="0" stop-color="#FFFFFF" stop-opacity="1" style="animation-play-state: paused;"></stop>
                <stop offset="1" stop-color="#FFFFFF" stop-opacity="0" style="animation-play-state: paused;"></stop>
                <animate attributeName="x2" dur="2.5s" from="0" to="100%" values="0; 100%; 100%" repeatCount="indefinite" style="animation-play-state: paused;"></animate>
            </linearGradient>          
            <mask id="fade-smooth-mask" maskUnits="userSpaceOnUse" style="animation-play-state: paused;">
              <rect width="100%" height="100%" fill="url(#fade-smooth-gradient)" style="animation-play-state: paused;"></rect>
            </mask></defs><g fill="#FFFFFF" fill-rule="none" stroke="none" stroke-width="1" stroke-linecap="butt" stroke-linejoin="miter" stroke-miterlimit="10" stroke-dasharray="" stroke-dashoffset="0" font-family="none" font-weight="none" font-size="none" text-anchor="none" style="mix-blend-mode: normal; animation-play-state: paused;" mask="url(#fade-smooth-mask)"><g data-paper-data="{&quot;isGlobalGroup&quot;:true,&quot;bounds&quot;:{&quot;x&quot;:82.98944876039964,&quot;y&quot;:181.01453159808472,&quot;width&quot;:384.0211024792007,&quot;height&quot;:107.97093680383057}}" style="animation-play-state: paused;" fill="#FFFFFF"><g data-paper-data="{&quot;isPrimaryText&quot;:true}" fill-rule="nonzero" style="animation-play-state: paused;" fill="#FFFFFF"><path d="M267.97686,272.51714v0.97837v0.17789c0.08894,1.15625 0.26683,2.40145 1.15625,2.9351c0,0 15.74283,0 28.55056,-0.35577c12.89667,-0.44471 40.37992,-0.44471 44.11551,0.35577c3.64665,0.71154 4.8029,-0.80048 5.06973,-1.86779c0.44471,-1.06731 0.44471,-3.91347 0.44471,-3.91347c0,0 0.35577,-2.57933 -2.9351,-2.57933c-3.29087,0 -11.74042,0 -20.54573,0.35577c-8.80531,0.44471 -20.18996,-0.6226 -30.5073,0.44471c-5.51444,0.53366 -11.74042,0.44471 -16.36543,0.26683c-0.26683,-1.15625 -0.6226,-2.40145 -0.88943,-3.73559c-0.17789,-0.6226 -0.17789,-1.2452 -0.17789,-1.86779c0.08894,-1.68991 0.26683,-3.29087 0.26683,-3.46876c0.6226,-6.93752 7.47118,-14.05292 14.05292,-17.3438c6.49281,-3.29087 20.63467,-7.20435 31.21884,-11.11782c10.58416,-4.09136 20.72362,-6.31492 23.56978,-12.45196c2.13462,-4.71396 2.84616,-12.27407 -3.46876,-18.32217c-6.22598,-6.04809 -15.92072,-8.27166 -28.99528,-8.44954c-13.07456,-0.35577 -24.99286,0 -33.35346,5.33655c-8.18272,5.33655 -9.87262,16.18755 -10.13945,19.65631c-0.35577,3.46876 0.08894,4.35819 0.08894,4.35819c0,0 0,2.49039 1.60097,3.11299c1.06731,0.44471 1.2452,0.53366 4.35819,0.08894c1.86779,-0.35577 1.51202,-2.04568 1.51202,-5.06973c0,-3.20193 0.17789,-7.91589 4.98078,-14.23081c4.89184,-6.22598 18.23323,-6.49281 24.72603,-6.67069c7.738,-0.08894 30.41836,2.40145 32.10827,10.76205c1.77885,8.3606 -11.29571,11.38465 -18.76688,14.23081c-7.38223,2.84616 -36.28857,10.22839 -44.2934,20.01208c-4.00242,5.06973 -5.95915,8.09377 -6.84858,11.38465c-0.08894,0.08894 -0.17789,0.26683 -0.17789,0.44471c-0.35577,1.86779 -0.6226,4.8029 -0.35577,9.6058c0.17789,2.75722 0.17789,5.06973 0.08894,6.49281c-0.08894,0.17789 -0.08894,0.35577 -0.08894,0.44471zM267.97686,273.49551v0.17789z" data-paper-data="{&quot;glyphName&quot;:&quot;2&quot;,&quot;glyphIndex&quot;:0,&quot;firstGlyphOfWord&quot;:true,&quot;word&quot;:1}" style="animation-play-state: paused;" fill="#FFFFFF"></path><path d="M355.31846,195.40394c0.08894,6.13704 0.26683,17.3438 0,21.43516c-0.26683,3.91347 0.35577,24.81498 0.35577,30.06259v29.17316c0,0.71154 0.53366,0.97837 1.15625,0.97837c0.6226,0 2.49039,-0.08894 3.11299,0c0.44471,0.17789 2.04568,-0.17789 2.04568,-1.06731c0,-0.88943 -0.08894,-2.22356 0.17789,-3.82453c4.00242,0.26683 9.33897,0.08894 14.23081,-0.08894c4.8029,-0.08894 16.89909,1.42308 21.61304,-1.06731c4.09136,-2.13462 6.84858,-5.51444 6.67069,-12.18513c-0.26683,-7.91589 -1.95674,-10.49522 -6.04809,-13.07456c-4.26924,-2.57933 -17.87746,-1.51202 -22.05776,-1.60097c-3.11299,0 -14.31975,-0.26683 -14.31975,-0.26683c0,0 -0.53366,-4.71396 -0.6226,-9.07214c-0.08894,-4.1803 0,-16.18755 0.17789,-20.99044c0.08894,-4.71396 0.17789,-16.63226 0.17789,-18.41111c0,-1.86779 -0.71154,-2.66828 -1.51202,-2.49039c-0.80048,0.08894 -1.95674,0.17789 -3.29087,0.17789c-1.2452,0 -1.86779,2.31251 -1.86779,2.31251zM361.81126,251.08198c2.57933,-1.77885 29.61787,-0.80048 32.28615,0.17789c2.31251,0.71154 4.09136,3.02405 4.09136,7.20435c0,4.09136 -1.51202,6.84858 -5.69232,7.738c-4.00242,0.88943 -28.01691,-0.26683 -31.04095,-0.80048c-0.08894,-7.91589 0.35577,-14.31975 0.35577,-14.31975zM378.1767,210.07946c0,0 1.15625,-0.71154 0.97837,-1.51202c-0.17789,-1.33414 -0.35577,-3.02405 -0.08894,-4.98078c0.17789,-2.04568 0.80048,-3.73559 2.22356,-4.71396c1.33414,-0.88943 3.82453,-1.06731 6.22598,-1.15625c3.02405,-0.08894 6.13704,0.6226 7.738,3.82453c1.68991,3.20193 0.6226,9.96157 0.6226,12.80773c0,2.84616 -0.17789,2.57933 -0.17789,2.57933c0,0 -14.31975,0 -17.52168,0.17789c-3.91347,0.26683 -5.69232,1.42308 -7.20435,3.11299c-2.13462,2.22356 -2.57933,5.60338 -2.22356,8.44954c0.53366,2.75722 3.5577,4.44713 6.13704,5.24761c2.57933,0.88943 2.75722,0.53366 6.22598,0.88943c3.46876,0.26683 14.23081,0.08894 14.23081,0.08894c0,0 0.08894,1.2452 0,2.13462c-0.08894,0.71154 1.15625,0.80048 1.77885,0.88943h3.11299c0.6226,0.08894 1.77885,0.17789 1.51202,-0.71154c-0.17789,-0.80048 -0.08894,-10.13945 -0.08894,-15.20918c0,-4.98078 0.6226,-13.34138 0.44471,-15.20918c-0.26683,-3.37982 -0.53366,-7.91589 -3.91347,-10.76205c-3.37982,-2.75722 -8.89426,-3.20193 -11.20676,-3.29087c-2.31251,-0.08894 -9.6058,0.26683 -11.82936,3.64665c-2.04568,3.20193 -2.04568,5.15867 -2.22356,7.20435c-0.26683,2.04568 -0.35577,4.89184 -0.35577,4.89184c0,0 0.71154,1.51202 1.42308,1.60097c0.80048,0.08894 2.40145,0.44471 4.1803,0zM395.34261,221.99777v5.69232c0,1.2452 -0.08894,-0.08894 0,2.13462c-2.57933,0.17789 -11.29571,0 -13.69715,-0.17789c-2.40145,-0.08894 -7.738,-0.35577 -7.64906,-3.5577c0.17789,-3.20193 3.02405,-3.5577 5.60338,-4.00242c2.66828,-0.35577 15.74283,-0.08894 15.74283,-0.08894z" data-paper-data="{&quot;glyphName&quot;:&quot;ке&quot;,&quot;glyphIndex&quot;:1,&quot;word&quot;:1}" style="animation-play-state: paused;" fill="#FFFFFF"></path><path d="M417.84508,192.37989c0,0 -5.78127,0.44471 -5.51444,4.71396c0.53366,4.26924 5.24761,4.62501 7.20435,4.26924c1.95674,-0.35577 3.02405,-2.40145 3.02405,-4.62501c0,-2.40145 -1.95674,-3.91347 -4.71396,-4.35819zM414.19843,276.87533c0.71154,0.97837 4.71396,0.71154 6.04809,0.71154c1.33414,0 1.60097,-1.68991 1.60097,-1.68991c0,0 -0.53366,-10.13945 -0.53366,-21.79093c0,-9.69474 0.26683,-15.20918 0.53366,-23.03612c0.35577,-8.00483 0,-18.94477 0,-22.05776c0,-2.75722 -2.31251,-2.49039 -2.31251,-2.49039c0,0 -2.57933,0 -3.64665,0.35577c-0.97837,0.26683 -2.31251,1.42308 -1.68991,4.53607c0.71154,3.46876 0.71154,28.01691 0.35577,39.75733c-0.35577,11.47359 -0.35577,25.7044 -0.35577,25.7044z" data-paper-data="{&quot;glyphName&quot;:&quot;i&quot;,&quot;glyphIndex&quot;:2,&quot;word&quot;:1}" style="animation-play-state: paused;" fill="#FFFFFF"></path><path d="M444.34996,193.53615c0,0 0,4.00242 0.08894,9.69474c-5.51444,-0.08894 -11.11782,-0.26683 -11.11782,-0.26683c-4.26924,0 -3.82453,1.60097 -3.82453,1.60097c0,0 -0.17789,2.75722 0.26683,3.5577c0.44471,0.88943 0.71154,0.71154 1.86779,0.97837c0.88943,0.17789 7.91589,0.17789 12.80773,0.26683l0.26683,14.76447c0.35577,13.60821 0.35577,43.0482 -0.35577,47.05062c-0.71154,3.73559 0.71154,5.06973 1.68991,5.33655c0.97837,0.44471 3.5577,0.44471 3.5577,0.44471c0,0 2.40145,0.44471 2.40145,-3.11299c0,-3.5577 0,-12.5409 -0.35577,-21.96881c-0.35577,-9.25003 0.6226,-21.43516 -0.35577,-32.46404c-0.35577,-3.20193 -0.44471,-6.75963 -0.44471,-10.13945c4.8029,-0.08894 13.43033,-0.6226 14.14187,-0.6226c1.06731,0 1.42308,-0.97837 1.86779,-1.33414c0.35577,-0.17789 0,-2.22356 0,-3.20193c0,-0.97837 -1.68991,-1.2452 -1.68991,-1.2452c0,0 -6.49281,-0.35577 -10.93994,0.08894c-0.6226,0.08894 -1.95674,0.17789 -3.37982,0.17789c0.17789,-4.62501 0.44471,-8.09377 0.44471,-8.09377c0,0 -0.97837,-2.22356 -2.40145,-2.22356c-1.15625,0 -3.82453,-0.44471 -4.53607,0.71154z" data-paper-data="{&quot;glyphName&quot;:&quot;t&quot;,&quot;glyphIndex&quot;:3,&quot;lastGlyphOfWord&quot;:true,&quot;word&quot;:1}" style="animation-play-state: paused;" fill="#FFFFFF"></path></g><g data-paper-data="{&quot;isIcon&quot;:&quot;true&quot;,&quot;selectedEffects&quot;:{&quot;container&quot;:&quot;&quot;,&quot;transformation&quot;:&quot;&quot;,&quot;pattern&quot;:&quot;&quot;},&quot;fillRule&quot;:&quot;nonzero&quot;,&quot;fillRuleOriginal&quot;:&quot;nonzero&quot;,&quot;iconType&quot;:&quot;initial&quot;,&quot;rawInitialId&quot;:&quot;510&quot;,&quot;initialText&quot;:&quot;BA&quot;,&quot;iconStyle&quot;:&quot;standalone&quot;,&quot;bounds&quot;:{&quot;x&quot;:82.98944876039964,&quot;y&quot;:181.01453159808472,&quot;width&quot;:134.090254335728,&quot;height&quot;:107.96972167048665},&quot;suitableAsStandaloneIcon&quot;:true}" fill-rule="evenodd" style="animation-play-state: paused;" fill="#FFFFFF"><g data-paper-data="{&quot;isPathIcon&quot;:true}" style="animation-play-state: paused;" fill="#FFFFFF"><path d="M150.69987,230.7574c0,9.81497 -8.15198,17.96695 -17.96695,17.96695h-28.28193c-1.331,0 -2.49599,-1.164 -2.49599,-2.49499v-41.75789c0,-1.331 1.165,-2.49499 2.49599,-2.49499c1.497,0 2.49499,1.164 2.49499,2.49499v39.2619h25.78693c7.15298,0 12.97597,-5.82298 12.97597,-12.97597c0,-7.31998 -5.82298,-13.14297 -12.97597,-13.14297h-1.83c-1.331,0 -2.49599,-1.165 -2.49599,-2.49599l0.166,-0.166c0,-0.166 -0.166,-0.166 -0.166,-0.333c0,-1.331 1.165,-2.49499 2.49599,-2.49499h1.83c7.15298,0 12.97597,-5.82298 12.97597,-12.97697c0,-7.15298 -5.82298,-13.14297 -12.97597,-13.14297h-47.24798c-1.3309,0 -2.49549,-0.998 -2.49549,-2.49499c0,-1.331 1.1646,-2.49499 2.49549,-2.49499h47.24798c9.81497,0 17.96695,8.15098 17.96695,18.13295c0,6.82098 -3.82599,12.64397 -9.31598,15.80496c5.48999,3.16099 9.31598,8.98398 9.31598,15.80496z" style="animation-play-state: paused;" fill="#FFFFFF"></path><path d="M212.58771,182.01253c0.665,-0.832 1.663,-1.165 2.82799,-0.832c1.165,0.333 1.664,1.164 1.664,2.32899v102.97973c0,1.497 -1.165,2.49499 -2.49599,2.49499c-1.331,0 -2.49499,-0.998 -2.49499,-2.49499v-69.04182h-19.79795l-22.62494,30.27892c-0.832,1.164 -2.32899,1.331 -3.49399,0.499c-1.331,-0.998 -1.497,-2.16299 -0.499,-3.49399l20.46295,-27.28393h-26.28593c-1.331,0 -2.49499,-1.164 -2.49499,-2.49499c0,-1.331 1.164,-2.49499 2.49499,-2.49499h29.94592zM212.08872,190.99551l-15.97096,21.46194h15.97096z" style="animation-play-state: paused;" fill="#FFFFFF"></path></g></g><path d="M237.39521,288.98547v-107.97094h1.44831v107.97094z" data-paper-data="{&quot;isShapeTextSeparator&quot;:true}" fill-rule="nonzero" style="animation-play-state: paused;" fill="#FFFFFF"></path></g></g><g fill="#FFFFFF" fill-rule="none" stroke="none" stroke-width="1" stroke-linecap="butt" stroke-linejoin="miter" stroke-miterlimit="10" stroke-dasharray="" stroke-dashoffset="0" font-family="none" font-weight="none" font-size="none" text-anchor="none" style="mix-blend-mode: normal; animation-play-state: paused;" opacity="0"><g data-paper-data="{&quot;isGlobalGroup&quot;:true,&quot;bounds&quot;:{&quot;x&quot;:82.98944876039964,&quot;y&quot;:181.01453159808472,&quot;width&quot;:384.0211024792007,&quot;height&quot;:107.97093680383057}}" style="animation-play-state: paused;" fill="#FFFFFF"><g data-paper-data="{&quot;isPrimaryText&quot;:true}" fill-rule="nonzero" style="animation-play-state: paused;" fill="#FFFFFF"><path d="M267.97686,272.51714v0.97837v0.17789c0.08894,1.15625 0.26683,2.40145 1.15625,2.9351c0,0 15.74283,0 28.55056,-0.35577c12.89667,-0.44471 40.37992,-0.44471 44.11551,0.35577c3.64665,0.71154 4.8029,-0.80048 5.06973,-1.86779c0.44471,-1.06731 0.44471,-3.91347 0.44471,-3.91347c0,0 0.35577,-2.57933 -2.9351,-2.57933c-3.29087,0 -11.74042,0 -20.54573,0.35577c-8.80531,0.44471 -20.18996,-0.6226 -30.5073,0.44471c-5.51444,0.53366 -11.74042,0.44471 -16.36543,0.26683c-0.26683,-1.15625 -0.6226,-2.40145 -0.88943,-3.73559c-0.17789,-0.6226 -0.17789,-1.2452 -0.17789,-1.86779c0.08894,-1.68991 0.26683,-3.29087 0.26683,-3.46876c0.6226,-6.93752 7.47118,-14.05292 14.05292,-17.3438c6.49281,-3.29087 20.63467,-7.20435 31.21884,-11.11782c10.58416,-4.09136 20.72362,-6.31492 23.56978,-12.45196c2.13462,-4.71396 2.84616,-12.27407 -3.46876,-18.32217c-6.22598,-6.04809 -15.92072,-8.27166 -28.99528,-8.44954c-13.07456,-0.35577 -24.99286,0 -33.35346,5.33655c-8.18272,5.33655 -9.87262,16.18755 -10.13945,19.65631c-0.35577,3.46876 0.08894,4.35819 0.08894,4.35819c0,0 0,2.49039 1.60097,3.11299c1.06731,0.44471 1.2452,0.53366 4.35819,0.08894c1.86779,-0.35577 1.51202,-2.04568 1.51202,-5.06973c0,-3.20193 0.17789,-7.91589 4.98078,-14.23081c4.89184,-6.22598 18.23323,-6.49281 24.72603,-6.67069c7.738,-0.08894 30.41836,2.40145 32.10827,10.76205c1.77885,8.3606 -11.29571,11.38465 -18.76688,14.23081c-7.38223,2.84616 -36.28857,10.22839 -44.2934,20.01208c-4.00242,5.06973 -5.95915,8.09377 -6.84858,11.38465c-0.08894,0.08894 -0.17789,0.26683 -0.17789,0.44471c-0.35577,1.86779 -0.6226,4.8029 -0.35577,9.6058c0.17789,2.75722 0.17789,5.06973 0.08894,6.49281c-0.08894,0.17789 -0.08894,0.35577 -0.08894,0.44471zM267.97686,273.49551v0.17789z" data-paper-data="{&quot;glyphName&quot;:&quot;2&quot;,&quot;glyphIndex&quot;:0,&quot;firstGlyphOfWord&quot;:true,&quot;word&quot;:1}" style="animation-play-state: paused;" fill="#FFFFFF"></path><path d="M355.31846,195.40394c0.08894,6.13704 0.26683,17.3438 0,21.43516c-0.26683,3.91347 0.35577,24.81498 0.35577,30.06259v29.17316c0,0.71154 0.53366,0.97837 1.15625,0.97837c0.6226,0 2.49039,-0.08894 3.11299,0c0.44471,0.17789 2.04568,-0.17789 2.04568,-1.06731c0,-0.88943 -0.08894,-2.22356 0.17789,-3.82453c4.00242,0.26683 9.33897,0.08894 14.23081,-0.08894c4.8029,-0.08894 16.89909,1.42308 21.61304,-1.06731c4.09136,-2.13462 6.84858,-5.51444 6.67069,-12.18513c-0.26683,-7.91589 -1.95674,-10.49522 -6.04809,-13.07456c-4.26924,-2.57933 -17.87746,-1.51202 -22.05776,-1.60097c-3.11299,0 -14.31975,-0.26683 -14.31975,-0.26683c0,0 -0.53366,-4.71396 -0.6226,-9.07214c-0.08894,-4.1803 0,-16.18755 0.17789,-20.99044c0.08894,-4.71396 0.17789,-16.63226 0.17789,-18.41111c0,-1.86779 -0.71154,-2.66828 -1.51202,-2.49039c-0.80048,0.08894 -1.95674,0.17789 -3.29087,0.17789c-1.2452,0 -1.86779,2.31251 -1.86779,2.31251zM361.81126,251.08198c2.57933,-1.77885 29.61787,-0.80048 32.28615,0.17789c2.31251,0.71154 4.09136,3.02405 4.09136,7.20435c0,4.09136 -1.51202,6.84858 -5.69232,7.738c-4.00242,0.88943 -28.01691,-0.26683 -31.04095,-0.80048c-0.08894,-7.91589 0.35577,-14.31975 0.35577,-14.31975zM378.1767,210.07946c0,0 1.15625,-0.71154 0.97837,-1.51202c-0.17789,-1.33414 -0.35577,-3.02405 -0.08894,-4.98078c0.17789,-2.04568 0.80048,-3.73559 2.22356,-4.71396c1.33414,-0.88943 3.82453,-1.06731 6.22598,-1.15625c3.02405,-0.08894 6.13704,0.6226 7.738,3.82453c1.68991,3.20193 0.6226,9.96157 0.6226,12.80773c0,2.84616 -0.17789,2.57933 -0.17789,2.57933c0,0 -14.31975,0 -17.52168,0.17789c-3.91347,0.26683 -5.69232,1.42308 -7.20435,3.11299c-2.13462,2.22356 -2.57933,5.60338 -2.22356,8.44954c0.53366,2.75722 3.5577,4.44713 6.13704,5.24761c2.57933,0.88943 2.75722,0.53366 6.22598,0.88943c3.46876,0.26683 14.23081,0.08894 14.23081,0.08894c0,0 0.08894,1.2452 0,2.13462c-0.08894,0.71154 1.15625,0.80048 1.77885,0.88943h3.11299c0.6226,0.08894 1.77885,0.17789 1.51202,-0.71154c-0.17789,-0.80048 -0.08894,-10.13945 -0.08894,-15.20918c0,-4.98078 0.6226,-13.34138 0.44471,-15.20918c-0.26683,-3.37982 -0.53366,-7.91589 -3.91347,-10.76205c-3.37982,-2.75722 -8.89426,-3.20193 -11.20676,-3.29087c-2.31251,-0.08894 -9.6058,0.26683 -11.82936,3.64665c-2.04568,3.20193 -2.04568,5.15867 -2.22356,7.20435c-0.26683,2.04568 -0.35577,4.89184 -0.35577,4.89184c0,0 0.71154,1.51202 1.42308,1.60097c0.80048,0.08894 2.40145,0.44471 4.1803,0zM395.34261,221.99777v5.69232c0,1.2452 -0.08894,-0.08894 0,2.13462c-2.57933,0.17789 -11.29571,0 -13.69715,-0.17789c-2.40145,-0.08894 -7.738,-0.35577 -7.64906,-3.5577c0.17789,-3.20193 3.02405,-3.5577 5.60338,-4.00242c2.66828,-0.35577 15.74283,-0.08894 15.74283,-0.08894z" data-paper-data="{&quot;glyphName&quot;:&quot;ке&quot;,&quot;glyphIndex&quot;:1,&quot;word&quot;:1}" style="animation-play-state: paused;" fill="#FFFFFF"></path><path d="M417.84508,192.37989c0,0 -5.78127,0.44471 -5.51444,4.71396c0.53366,4.26924 5.24761,4.62501 7.20435,4.26924c1.95674,-0.35577 3.02405,-2.40145 3.02405,-4.62501c0,-2.40145 -1.95674,-3.91347 -4.71396,-4.35819zM414.19843,276.87533c0.71154,0.97837 4.71396,0.71154 6.04809,0.71154c1.33414,0 1.60097,-1.68991 1.60097,-1.68991c0,0 -0.53366,-10.13945 -0.53366,-21.79093c0,-9.69474 0.26683,-15.20918 0.53366,-23.03612c0.35577,-8.00483 0,-18.94477 0,-22.05776c0,-2.75722 -2.31251,-2.49039 -2.31251,-2.49039c0,0 -2.57933,0 -3.64665,0.35577c-0.97837,0.26683 -2.31251,1.42308 -1.68991,4.53607c0.71154,3.46876 0.71154,28.01691 0.35577,39.75733c-0.35577,11.47359 -0.35577,25.7044 -0.35577,25.7044z" data-paper-data="{&quot;glyphName&quot;:&quot;i&quot;,&quot;glyphIndex&quot;:2,&quot;word&quot;:1}" style="animation-play-state: paused;" fill="#FFFFFF"></path><path d="M444.34996,193.53615c0,0 0,4.00242 0.08894,9.69474c-5.51444,-0.08894 -11.11782,-0.26683 -11.11782,-0.26683c-4.26924,0 -3.82453,1.60097 -3.82453,1.60097c0,0 -0.17789,2.75722 0.26683,3.5577c0.44471,0.88943 0.71154,0.71154 1.86779,0.97837c0.88943,0.17789 7.91589,0.17789 12.80773,0.26683l0.26683,14.76447c0.35577,13.60821 0.35577,43.0482 -0.35577,47.05062c-0.71154,3.73559 0.71154,5.06973 1.68991,5.33655c0.97837,0.44471 3.5577,0.44471 3.5577,0.44471c0,0 2.40145,0.44471 2.40145,-3.11299c0,-3.5577 0,-12.5409 -0.35577,-21.96881c-0.35577,-9.25003 0.6226,-21.43516 -0.35577,-32.46404c-0.35577,-3.20193 -0.44471,-6.75963 -0.44471,-10.13945c4.8029,-0.08894 13.43033,-0.6226 14.14187,-0.6226c1.06731,0 1.42308,-0.97837 1.86779,-1.33414c0.35577,-0.17789 0,-2.22356 0,-3.20193c0,-0.97837 -1.68991,-1.2452 -1.68991,-1.2452c0,0 -6.49281,-0.35577 -10.93994,0.08894c-0.6226,0.08894 -1.95674,0.17789 -3.37982,0.17789c0.17789,-4.62501 0.44471,-8.09377 0.44471,-8.09377c0,0 -0.97837,-2.22356 -2.40145,-2.22356c-1.15625,0 -3.82453,-0.44471 -4.53607,0.71154z" data-paper-data="{&quot;glyphName&quot;:&quot;t&quot;,&quot;glyphIndex&quot;:3,&quot;lastGlyphOfWord&quot;:true,&quot;word&quot;:1}" style="animation-play-state: paused;" fill="#FFFFFF"></path></g><g data-paper-data="{&quot;isIcon&quot;:&quot;true&quot;,&quot;selectedEffects&quot;:{&quot;container&quot;:&quot;&quot;,&quot;transformation&quot;:&quot;&quot;,&quot;pattern&quot;:&quot;&quot;},&quot;fillRule&quot;:&quot;nonzero&quot;,&quot;fillRuleOriginal&quot;:&quot;nonzero&quot;,&quot;iconType&quot;:&quot;initial&quot;,&quot;rawInitialId&quot;:&quot;510&quot;,&quot;initialText&quot;:&quot;BA&quot;,&quot;iconStyle&quot;:&quot;standalone&quot;,&quot;bounds&quot;:{&quot;x&quot;:82.98944876039964,&quot;y&quot;:181.01453159808472,&quot;width&quot;:134.090254335728,&quot;height&quot;:107.96972167048665},&quot;suitableAsStandaloneIcon&quot;:true}" fill-rule="evenodd" style="animation-play-state: paused;" fill="#FFFFFF"><g data-paper-data="{&quot;isPathIcon&quot;:true}" style="animation-play-state: paused;" fill="#FFFFFF"><path d="M150.69987,230.7574c0,9.81497 -8.15198,17.96695 -17.96695,17.96695h-28.28193c-1.331,0 -2.49599,-1.164 -2.49599,-2.49499v-41.75789c0,-1.331 1.165,-2.49499 2.49599,-2.49499c1.497,0 2.49499,1.164 2.49499,2.49499v39.2619h25.78693c7.15298,0 12.97597,-5.82298 12.97597,-12.97597c0,-7.31998 -5.82298,-13.14297 -12.97597,-13.14297h-1.83c-1.331,0 -2.49599,-1.165 -2.49599,-2.49599l0.166,-0.166c0,-0.166 -0.166,-0.166 -0.166,-0.333c0,-1.331 1.165,-2.49499 2.49599,-2.49499h1.83c7.15298,0 12.97597,-5.82298 12.97597,-12.97697c0,-7.15298 -5.82298,-13.14297 -12.97597,-13.14297h-47.24798c-1.3309,0 -2.49549,-0.998 -2.49549,-2.49499c0,-1.331 1.1646,-2.49499 2.49549,-2.49499h47.24798c9.81497,0 17.96695,8.15098 17.96695,18.13295c0,6.82098 -3.82599,12.64397 -9.31598,15.80496c5.48999,3.16099 9.31598,8.98398 9.31598,15.80496z" style="animation-play-state: paused;" fill="#FFFFFF"></path><path d="M212.58771,182.01253c0.665,-0.832 1.663,-1.165 2.82799,-0.832c1.165,0.333 1.664,1.164 1.664,2.32899v102.97973c0,1.497 -1.165,2.49499 -2.49599,2.49499c-1.331,0 -2.49499,-0.998 -2.49499,-2.49499v-69.04182h-19.79795l-22.62494,30.27892c-0.832,1.164 -2.32899,1.331 -3.49399,0.499c-1.331,-0.998 -1.497,-2.16299 -0.499,-3.49399l20.46295,-27.28393h-26.28593c-1.331,0 -2.49499,-1.164 -2.49499,-2.49499c0,-1.331 1.164,-2.49499 2.49499,-2.49499h29.94592zM212.08872,190.99551l-15.97096,21.46194h15.97096z" style="animation-play-state: paused;" fill="#FFFFFF"></path></g></g><path d="M237.39521,288.98547v-107.97094h1.44831v107.97094z" data-paper-data="{&quot;isShapeTextSeparator&quot;:true}" fill-rule="nonzero" style="animation-play-state: paused;" fill="#FFFFFF"></path></g><animate attributeName="opacity" dur="2.5s" from="0" to="1" values="0; 0; 1" repeatCount="indefinite" style="animation-play-state: paused;" fill="#FFFFFF"></animate></g></svg>