<svg xmlns:mydata="http://www.w3.org/2000/svg" mydata:contrastcolor="ffffff" mydata:template="Default" mydata:presentation="2.5" mydata:layouttype="undefined" mydata:specialfontid="undefined" mydata:id1="421" mydata:id2="133" mydata:companyname="2baIt" mydata:companytagline="" version="1.1" xmlns="http://www.w3.org/2000/svg" xmlns:xlink="http://www.w3.org/1999/xlink" viewBox="82.98944876039964 181.01453159808472 384.0211024792007 107.97093680383057" class="watermark-logo" width="384.0211024792007"  height="107.97093680383057" ><g fill="#00594F" fill-rule="none" stroke="none" stroke-width="1" stroke-linecap="butt" stroke-linejoin="miter" stroke-miterlimit="10" stroke-dasharray="" stroke-dashoffset="0" font-family="none" font-weight="none" font-size="none" text-anchor="none" style="mix-blend-mode: normal"><g data-paper-data="{&quot;isGlobalGroup&quot;:true,&quot;bounds&quot;:{&quot;x&quot;:82.98944876039964,&quot;y&quot;:181.01453159808472,&quot;width&quot;:384.0211024792007,&quot;height&quot;:107.97093680383057}}" fill="#00594F"><g data-paper-data="{&quot;isPrimaryText&quot;:true}" fill-rule="nonzero" fill="#00594F"><path d="M267.97686,272.51714v0.97837v0.17789c0.08894,1.15625 0.26683,2.40145 1.15625,2.9351c0,0 15.74283,0 28.55056,-0.35577c12.89667,-0.44471 40.37992,-0.44471 44.11551,0.35577c3.64665,0.71154 4.8029,-0.80048 5.06973,-1.86779c0.44471,-1.06731 0.44471,-3.91347 0.44471,-3.91347c0,0 0.35577,-2.57933 -2.9351,-2.57933c-3.29087,0 -11.74042,0 -20.54573,0.35577c-8.80531,0.44471 -20.18996,-0.6226 -30.5073,0.44471c-5.51444,0.53366 -11.74042,0.44471 -16.36543,0.26683c-0.26683,-1.15625 -0.6226,-2.40145 -0.88943,-3.73559c-0.17789,-0.6226 -0.17789,-1.2452 -0.17789,-1.86779c0.08894,-1.68991 0.26683,-3.29087 0.26683,-3.46876c0.6226,-6.93752 7.47118,-14.05292 14.05292,-17.3438c6.49281,-3.29087 20.63467,-7.20435 31.21884,-11.11782c10.58416,-4.09136 20.72362,-6.31492 23.56978,-12.45196c2.13462,-4.71396 2.84616,-12.27407 -3.46876,-18.32217c-6.22598,-6.04809 -15.92072,-8.27166 -28.99528,-8.44954c-13.07456,-0.35577 -24.99286,0 -33.35346,5.33655c-8.18272,5.33655 -9.87262,16.18755 -10.13945,19.65631c-0.35577,3.46876 0.08894,4.35819 0.08894,4.35819c0,0 0,2.49039 1.60097,3.11299c1.06731,0.44471 1.2452,0.53366 4.35819,0.08894c1.86779,-0.35577 1.51202,-2.04568 1.51202,-5.06973c0,-3.20193 0.17789,-7.91589 4.98078,-14.23081c4.89184,-6.22598 18.23323,-6.49281 24.72603,-6.67069c7.738,-0.08894 30.41836,2.40145 32.10827,10.76205c1.77885,8.3606 -11.29571,11.38465 -18.76688,14.23081c-7.38223,2.84616 -36.28857,10.22839 -44.2934,20.01208c-4.00242,5.06973 -5.95915,8.09377 -6.84858,11.38465c-0.08894,0.08894 -0.17789,0.26683 -0.17789,0.44471c-0.35577,1.86779 -0.6226,4.8029 -0.35577,9.6058c0.17789,2.75722 0.17789,5.06973 0.08894,6.49281c-0.08894,0.17789 -0.08894,0.35577 -0.08894,0.44471zM267.97686,273.49551v0.17789z" data-paper-data="{&quot;glyphName&quot;:&quot;2&quot;,&quot;glyphIndex&quot;:0,&quot;firstGlyphOfWord&quot;:true,&quot;word&quot;:1}" style="" fill="#FFFFFF"></path><path d="M355.31846,195.40394c0.08894,6.13704 0.26683,17.3438 0,21.43516c-0.26683,3.91347 0.35577,24.81498 0.35577,30.06259v29.17316c0,0.71154 0.53366,0.97837 1.15625,0.97837c0.6226,0 2.49039,-0.08894 3.11299,0c0.44471,0.17789 2.04568,-0.17789 2.04568,-1.06731c0,-0.88943 -0.08894,-2.22356 0.17789,-3.82453c4.00242,0.26683 9.33897,0.08894 14.23081,-0.08894c4.8029,-0.08894 16.89909,1.42308 21.61304,-1.06731c4.09136,-2.13462 6.84858,-5.51444 6.67069,-12.18513c-0.26683,-7.91589 -1.95674,-10.49522 -6.04809,-13.07456c-4.26924,-2.57933 -17.87746,-1.51202 -22.05776,-1.60097c-3.11299,0 -14.31975,-0.26683 -14.31975,-0.26683c0,0 -0.53366,-4.71396 -0.6226,-9.07214c-0.08894,-4.1803 0,-16.18755 0.17789,-20.99044c0.08894,-4.71396 0.17789,-16.63226 0.17789,-18.41111c0,-1.86779 -0.71154,-2.66828 -1.51202,-2.49039c-0.80048,0.08894 -1.95674,0.17789 -3.29087,0.17789c-1.2452,0 -1.86779,2.31251 -1.86779,2.31251zM361.81126,251.08198c2.57933,-1.77885 29.61787,-0.80048 32.28615,0.17789c2.31251,0.71154 4.09136,3.02405 4.09136,7.20435c0,4.09136 -1.51202,6.84858 -5.69232,7.738c-4.00242,0.88943 -28.01691,-0.26683 -31.04095,-0.80048c-0.08894,-7.91589 0.35577,-14.31975 0.35577,-14.31975zM378.1767,210.07946c0,0 1.15625,-0.71154 0.97837,-1.51202c-0.17789,-1.33414 -0.35577,-3.02405 -0.08894,-4.98078c0.17789,-2.04568 0.80048,-3.73559 2.22356,-4.71396c1.33414,-0.88943 3.82453,-1.06731 6.22598,-1.15625c3.02405,-0.08894 6.13704,0.6226 7.738,3.82453c1.68991,3.20193 0.6226,9.96157 0.6226,12.80773c0,2.84616 -0.17789,2.57933 -0.17789,2.57933c0,0 -14.31975,0 -17.52168,0.17789c-3.91347,0.26683 -5.69232,1.42308 -7.20435,3.11299c-2.13462,2.22356 -2.57933,5.60338 -2.22356,8.44954c0.53366,2.75722 3.5577,4.44713 6.13704,5.24761c2.57933,0.88943 2.75722,0.53366 6.22598,0.88943c3.46876,0.26683 14.23081,0.08894 14.23081,0.08894c0,0 0.08894,1.2452 0,2.13462c-0.08894,0.71154 1.15625,0.80048 1.77885,0.88943h3.11299c0.6226,0.08894 1.77885,0.17789 1.51202,-0.71154c-0.17789,-0.80048 -0.08894,-10.13945 -0.08894,-15.20918c0,-4.98078 0.6226,-13.34138 0.44471,-15.20918c-0.26683,-3.37982 -0.53366,-7.91589 -3.91347,-10.76205c-3.37982,-2.75722 -8.89426,-3.20193 -11.20676,-3.29087c-2.31251,-0.08894 -9.6058,0.26683 -11.82936,3.64665c-2.04568,3.20193 -2.04568,5.15867 -2.22356,7.20435c-0.26683,2.04568 -0.35577,4.89184 -0.35577,4.89184c0,0 0.71154,1.51202 1.42308,1.60097c0.80048,0.08894 2.40145,0.44471 4.1803,0zM395.34261,221.99777v5.69232c0,1.2452 -0.08894,-0.08894 0,2.13462c-2.57933,0.17789 -11.29571,0 -13.69715,-0.17789c-2.40145,-0.08894 -7.738,-0.35577 -7.64906,-3.5577c0.17789,-3.20193 3.02405,-3.5577 5.60338,-4.00242c2.66828,-0.35577 15.74283,-0.08894 15.74283,-0.08894z" data-paper-data="{&quot;glyphName&quot;:&quot;ке&quot;,&quot;glyphIndex&quot;:1,&quot;word&quot;:1}" style="" fill="#FFFFFF"></path><path d="M417.84508,192.37989c0,0 -5.78127,0.44471 -5.51444,4.71396c0.53366,4.26924 5.24761,4.62501 7.20435,4.26924c1.95674,-0.35577 3.02405,-2.40145 3.02405,-4.62501c0,-2.40145 -1.95674,-3.91347 -4.71396,-4.35819zM414.19843,276.87533c0.71154,0.97837 4.71396,0.71154 6.04809,0.71154c1.33414,0 1.60097,-1.68991 1.60097,-1.68991c0,0 -0.53366,-10.13945 -0.53366,-21.79093c0,-9.69474 0.26683,-15.20918 0.53366,-23.03612c0.35577,-8.00483 0,-18.94477 0,-22.05776c0,-2.75722 -2.31251,-2.49039 -2.31251,-2.49039c0,0 -2.57933,0 -3.64665,0.35577c-0.97837,0.26683 -2.31251,1.42308 -1.68991,4.53607c0.71154,3.46876 0.71154,28.01691 0.35577,39.75733c-0.35577,11.47359 -0.35577,25.7044 -0.35577,25.7044z" data-paper-data="{&quot;glyphName&quot;:&quot;i&quot;,&quot;glyphIndex&quot;:2,&quot;word&quot;:1}" style="" fill="#FFFFFF"></path><path d="M444.34996,193.53615c0,0 0,4.00242 0.08894,9.69474c-5.51444,-0.08894 -11.11782,-0.26683 -11.11782,-0.26683c-4.26924,0 -3.82453,1.60097 -3.82453,1.60097c0,0 -0.17789,2.75722 0.26683,3.5577c0.44471,0.88943 0.71154,0.71154 1.86779,0.97837c0.88943,0.17789 7.91589,0.17789 12.80773,0.26683l0.26683,14.76447c0.35577,13.60821 0.35577,43.0482 -0.35577,47.05062c-0.71154,3.73559 0.71154,5.06973 1.68991,5.33655c0.97837,0.44471 3.5577,0.44471 3.5577,0.44471c0,0 2.40145,0.44471 2.40145,-3.11299c0,-3.5577 0,-12.5409 -0.35577,-21.96881c-0.35577,-9.25003 0.6226,-21.43516 -0.35577,-32.46404c-0.35577,-3.20193 -0.44471,-6.75963 -0.44471,-10.13945c4.8029,-0.08894 13.43033,-0.6226 14.14187,-0.6226c1.06731,0 1.42308,-0.97837 1.86779,-1.33414c0.35577,-0.17789 0,-2.22356 0,-3.20193c0,-0.97837 -1.68991,-1.2452 -1.68991,-1.2452c0,0 -6.49281,-0.35577 -10.93994,0.08894c-0.6226,0.08894 -1.95674,0.17789 -3.37982,0.17789c0.17789,-4.62501 0.44471,-8.09377 0.44471,-8.09377c0,0 -0.97837,-2.22356 -2.40145,-2.22356c-1.15625,0 -3.82453,-0.44471 -4.53607,0.71154z" data-paper-data="{&quot;glyphName&quot;:&quot;t&quot;,&quot;glyphIndex&quot;:3,&quot;lastGlyphOfWord&quot;:true,&quot;word&quot;:1}" style="" fill="#FFFFFF"></path></g><g data-paper-data="{&quot;isIcon&quot;:&quot;true&quot;,&quot;selectedEffects&quot;:{&quot;container&quot;:&quot;&quot;,&quot;transformation&quot;:&quot;&quot;,&quot;pattern&quot;:&quot;&quot;},&quot;fillRule&quot;:&quot;nonzero&quot;,&quot;fillRuleOriginal&quot;:&quot;nonzero&quot;,&quot;iconType&quot;:&quot;initial&quot;,&quot;rawInitialId&quot;:&quot;510&quot;,&quot;initialText&quot;:&quot;BA&quot;,&quot;iconStyle&quot;:&quot;standalone&quot;,&quot;bounds&quot;:{&quot;x&quot;:82.98944876039964,&quot;y&quot;:181.01453159808472,&quot;width&quot;:134.090254335728,&quot;height&quot;:107.96972167048665},&quot;suitableAsStandaloneIcon&quot;:true}" fill-rule="evenodd" fill="#00594F"><g data-paper-data="{&quot;isPathIcon&quot;:true}" fill="#00594F"><path d="M150.69987,230.7574c0,9.81497 -8.15198,17.96695 -17.96695,17.96695h-28.28193c-1.331,0 -2.49599,-1.164 -2.49599,-2.49499v-41.75789c0,-1.331 1.165,-2.49499 2.49599,-2.49499c1.497,0 2.49499,1.164 2.49499,2.49499v39.2619h25.78693c7.15298,0 12.97597,-5.82298 12.97597,-12.97597c0,-7.31998 -5.82298,-13.14297 -12.97597,-13.14297h-1.83c-1.331,0 -2.49599,-1.165 -2.49599,-2.49599l0.166,-0.166c0,-0.166 -0.166,-0.166 -0.166,-0.333c0,-1.331 1.165,-2.49499 2.49599,-2.49499h1.83c7.15298,0 12.97597,-5.82298 12.97597,-12.97697c0,-7.15298 -5.82298,-13.14297 -12.97597,-13.14297h-47.24798c-1.3309,0 -2.49549,-0.998 -2.49549,-2.49499c0,-1.331 1.1646,-2.49499 2.49549,-2.49499h47.24798c9.81497,0 17.96695,8.15098 17.96695,18.13295c0,6.82098 -3.82599,12.64397 -9.31598,15.80496c5.48999,3.16099 9.31598,8.98398 9.31598,15.80496z" style="" fill="#FFFFFF"></path><path d="M212.58771,182.01253c0.665,-0.832 1.663,-1.165 2.82799,-0.832c1.165,0.333 1.664,1.164 1.664,2.32899v102.97973c0,1.497 -1.165,2.49499 -2.49599,2.49499c-1.331,0 -2.49499,-0.998 -2.49499,-2.49499v-69.04182h-19.79795l-22.62494,30.27892c-0.832,1.164 -2.32899,1.331 -3.49399,0.499c-1.331,-0.998 -1.497,-2.16299 -0.499,-3.49399l20.46295,-27.28393h-26.28593c-1.331,0 -2.49499,-1.164 -2.49499,-2.49499c0,-1.331 1.164,-2.49499 2.49499,-2.49499h29.94592zM212.08872,190.99551l-15.97096,21.46194h15.97096z" style="" fill="#FFFFFF"></path></g></g><path d="M237.39521,288.98547v-107.97094h1.44831v107.97094z" data-paper-data="{&quot;isShapeTextSeparator&quot;:true}" fill-rule="nonzero" style="" fill="#FFFFFF"></path></g></g><g class="watermark-group" style="opacity:0.040000010281801224"><path class="watermark-path" d="M129.52,370.3a11.88,11.88,0,0,1,2.58,5.58,12,12,0,0,1,.11,3,11.81,11.81,0,0,1-.64,2.93,12.34,12.34,0,0,1-1.41,2.72,11.65,11.65,0,0,1-2.13,2.32,12,12,0,0,1-2.64,1.69,13,13,0,0,1-2.91.9,12.47,12.47,0,0,1-3,.12,12.17,12.17,0,0,1-2.93-.64,11.8,11.8,0,0,1-2.72-1.38,12.19,12.19,0,0,1-4-4.79,11.85,11.85,0,0,1-.89-2.92,12.14,12.14,0,0,1-.13-3,11.54,11.54,0,0,1,.64-2.92,11.67,11.67,0,0,1,3.5-5,11.44,11.44,0,0,1,2.67-1.69,11.64,11.64,0,0,1,2.92-.91,10.71,10.71,0,0,1,3-.12,11.68,11.68,0,0,1,5.66,2,11.7,11.7,0,0,1,2.34,2.12m-1.4,8.76a13,13,0,0,1-1.22,2.32,9.68,9.68,0,0,1-1.81,2,7.44,7.44,0,0,1-2.38,1.37,6.17,6.17,0,0,1-5.11-.46,8.73,8.73,0,0,1-3.85-4.58,6.69,6.69,0,0,1-.34-2.66,6.09,6.09,0,0,1,.77-2.47,7.15,7.15,0,0,1,1.75-2.11,9.58,9.58,0,0,1,1.09-.81,8.23,8.23,0,0,1,1.12-.63,8.14,8.14,0,0,1,1.19-.46,12.71,12.71,0,0,1,1.32-.37l2,2.38a12.83,12.83,0,0,0-1.56.17,7.86,7.86,0,0,0-1.23.32,4.5,4.5,0,0,0-1,.49,6.41,6.41,0,0,0-.93.67,4.49,4.49,0,0,0-1.15,1.39,3.87,3.87,0,0,0-.45,1.58,4.12,4.12,0,0,0,.26,1.63,6.11,6.11,0,0,0,2.36,2.82,4.43,4.43,0,0,0,1.57.53,3.91,3.91,0,0,0,1.62-.17,4.71,4.71,0,0,0,1.57-.89,10.5,10.5,0,0,0,.83-.79,5.71,5.71,0,0,0,.65-.93,10.13,10.13,0,0,0,.54-1.14,12.24,12.24,0,0,0,.44-1.49l2,2.33m-14.46,4.55a8.86,8.86,0,0,0,2.78,2.22,9,9,0,0,0,3.29.94,9.15,9.15,0,0,0,3.39-.37,8.68,8.68,0,0,0,3.11-1.69,8.8,8.8,0,0,0,2.22-2.78,9.15,9.15,0,0,0,1-3.29,8.95,8.95,0,0,0-4.83-8.76,9,9,0,0,0-6.73-.57,9,9,0,0,0-5.33,4.47,8.94,8.94,0,0,0-.57,6.71,8.76,8.76,0,0,0,1.7,3.12" style="" fill="#FFFFFF"></path><path class="watermark-path" d="M147,349c-.48.12-1.09.31-1.82.57a24.37,24.37,0,0,0-2.4,1A28.35,28.35,0,0,0,140,352a20.72,20.72,0,0,0-2.71,1.94c-.7.59-1.28,1.11-1.74,1.57a15.07,15.07,0,0,0-1.1,1.22,4.09,4.09,0,0,0-.59.92,2.32,2.32,0,0,0-.22.64,1.16,1.16,0,0,0,0,.47,1.83,1.83,0,0,0,.18.29,1.15,1.15,0,0,0,1,.37,5.54,5.54,0,0,0,1.51-.38q.87-.35,1.95-.9l2.26-1.18q1.2-.65,2.49-1.29c.87-.44,1.73-.83,2.59-1.17a18.94,18.94,0,0,1,2.6-.81,9.27,9.27,0,0,1,2.46-.29,6.25,6.25,0,0,1,2.24.49,5.12,5.12,0,0,1,1.89,1.47,6.35,6.35,0,0,1,1.41,2.61,6,6,0,0,1,.09,2.6,8.3,8.3,0,0,1-.9,2.52,17.79,17.79,0,0,1-1.62,2.37,23.92,23.92,0,0,1-2,2.15c-.72.67-1.41,1.29-2.09,1.87a33.79,33.79,0,0,1-5.33,3.7,32.29,32.29,0,0,1-4.91,2.28l-3.61-4.3a21.38,21.38,0,0,0,5.39-1.87,27.2,27.2,0,0,0,5.4-3.56,21.59,21.59,0,0,0,2.38-2.27,8.67,8.67,0,0,0,1.18-1.7,2.32,2.32,0,0,0,.27-1.19,1.34,1.34,0,0,0-.28-.74,1.21,1.21,0,0,0-1-.42,4.32,4.32,0,0,0-1.55.34,15.77,15.77,0,0,0-2,.88c-.72.37-1.48.77-2.27,1.21l-2.45,1.3c-.85.45-1.7.85-2.56,1.21a22.37,22.37,0,0,1-2.54.86,10,10,0,0,1-2.43.32,5.76,5.76,0,0,1-2.2-.45,5,5,0,0,1-1.89-1.45,6.12,6.12,0,0,1-1.31-2.41,6,6,0,0,1-.1-2.41,8.28,8.28,0,0,1,.81-2.38,14.06,14.06,0,0,1,1.49-2.24,22.37,22.37,0,0,1,1.85-2.05q1-1,2-1.77c.7-.59,1.44-1.15,2.23-1.7s1.62-1.06,2.44-1.53,1.63-.91,2.43-1.3,1.58-.75,2.3-1L147,349" style="" fill="#FFFFFF"></path><path class="watermark-path" d="M186.76,337.57l-10.6-12.63,3.92,18.24-4.66,3.91-17.27-7,10.6,12.63-4.86,4.07-15.09-18,6.59-5.54,18.69,7.52-4.15-19.71,6.57-5.52,15.09,18-4.83,4.05" style="" fill="#FFFFFF"></path><path class="watermark-path" d="M208.84,313.24l-10,8.42,1.16,4.82L194.56,331l-5.68-25.89,5.42-4.55,24.51,10.09-5.42,4.55-4.55-2m-11.23,3.45,6.57-5.52-8.83-3.87,2.26,9.39" style="" fill="#FFFFFF"></path><path class="watermark-path" d="M227.49,281.38c-.48.12-1.09.31-1.82.57a24.37,24.37,0,0,0-2.4,1,26.11,26.11,0,0,0-2.7,1.47,20.72,20.72,0,0,0-2.71,1.94c-.7.59-1.28,1.11-1.74,1.57a13.39,13.39,0,0,0-1.1,1.22,4.29,4.29,0,0,0-.59.91,2.48,2.48,0,0,0-.22.65,1.16,1.16,0,0,0,0,.47,1.83,1.83,0,0,0,.18.29,1.15,1.15,0,0,0,1,.37,5.54,5.54,0,0,0,1.51-.38q.87-.34,2-.9l2.26-1.18q1.2-.64,2.49-1.29c.87-.44,1.73-.83,2.59-1.17a18.94,18.94,0,0,1,2.6-.81,9.27,9.27,0,0,1,2.46-.29,6.08,6.08,0,0,1,2.24.49,5.09,5.09,0,0,1,1.89,1.46,6.47,6.47,0,0,1,1.41,2.61,6.07,6.07,0,0,1,.09,2.61,8.3,8.3,0,0,1-.9,2.52,16.32,16.32,0,0,1-1.63,2.36,21.41,21.41,0,0,1-2,2.16c-.72.67-1.41,1.29-2.1,1.86a33.36,33.36,0,0,1-5.32,3.71,31.92,31.92,0,0,1-4.92,2.28l-3.6-4.3a21.38,21.38,0,0,0,5.39-1.87,27.2,27.2,0,0,0,5.4-3.56,21.59,21.59,0,0,0,2.38-2.27,8.67,8.67,0,0,0,1.18-1.7A2.32,2.32,0,0,0,231,293a1.34,1.34,0,0,0-.28-.74,1.21,1.21,0,0,0-1-.42,4.32,4.32,0,0,0-1.55.34,16.54,16.54,0,0,0-2,.88c-.71.37-1.47.77-2.26,1.21l-2.46,1.3c-.84.44-1.7.85-2.55,1.21a24.53,24.53,0,0,1-2.54.86A10,10,0,0,1,214,298a5.76,5.76,0,0,1-2.2-.45,5,5,0,0,1-1.89-1.45,6.12,6.12,0,0,1-1.31-2.41,5.78,5.78,0,0,1-.1-2.41,8,8,0,0,1,.81-2.38,14.61,14.61,0,0,1,1.49-2.25,22.26,22.26,0,0,1,1.85-2q1-1,2-1.77c.7-.59,1.44-1.15,2.23-1.7s1.62-1.06,2.44-1.53,1.63-.91,2.43-1.31,1.58-.74,2.3-1l3.5,4.16" style="" fill="#FFFFFF"></path><path class="watermark-path" d="M261.64,274.74l-6.29-7.5L243,277.61l6.3,7.5-4.86,4.07-15.09-18,4.85-4.08,5.49,6.55L252,263.3l-5.49-6.55,4.86-4.07,15.09,18-4.86,4.08" style="" fill="#FFFFFF"></path><path class="watermark-path" d="M272.18,265.9l-15.09-18,4.86-4.08,15.09,18-4.86,4.08" style="" fill="#FFFFFF"></path><path class="watermark-path" d="M299.65,242.85l-22.51-2.18L287.51,253l-4.85,4.08-15.1-18,5.28-4.43,22.56,2.22L285,224.5l4.83-4.06,15.09,18-5.26,4.42" style="" fill="#FFFFFF"></path><path class="watermark-path" d="M306.68,205.52a31.88,31.88,0,0,1,5.29-3.66,34.48,34.48,0,0,1,5.14-2.35l3.69,4.39a20.77,20.77,0,0,0-2.37.61,20.47,20.47,0,0,0-2.61,1,25.12,25.12,0,0,0-2.76,1.49,23.9,23.9,0,0,0-2.8,2,20.42,20.42,0,0,0-2.8,2.77,12.77,12.77,0,0,0-1.64,2.52,7,7,0,0,0-.68,2.24,6,6,0,0,0,.66,3.64,8.16,8.16,0,0,0,.94,1.38,9.12,9.12,0,0,0,1.08,1.07,6.39,6.39,0,0,0,1.47.91,6.73,6.73,0,0,0,1.88.48,6.54,6.54,0,0,0,2.28-.18,11.67,11.67,0,0,0,2.74-1.07,19.38,19.38,0,0,0,3.18-2.22c.57-.48,1.06-.92,1.46-1.31a14.57,14.57,0,0,0,1-1.13,11.46,11.46,0,0,0,.81-1.05l.74-1.09-1.82-2.17-5.45,4.57-3.31-3.94,10.31-8.65,7.71,9.19a29,29,0,0,1-1.67,2.43q-1,1.26-2.1,2.52c-.74.84-1.5,1.65-2.3,2.44s-1.58,1.5-2.33,2.14a31,31,0,0,1-3.59,2.61,22.55,22.55,0,0,1-3.64,1.83,15.64,15.64,0,0,1-3.63.89,10.72,10.72,0,0,1-3.49-.15,10.45,10.45,0,0,1-3.28-1.33,12.54,12.54,0,0,1-3-2.67,12,12,0,0,1-2.08-3.44,10.45,10.45,0,0,1-.71-3.5,11.14,11.14,0,0,1,.51-3.51,15.72,15.72,0,0,1,1.56-3.43,21.62,21.62,0,0,1,2.42-3.28,30.3,30.3,0,0,1,3.15-3" style="" fill="#FFFFFF"></path><path class="watermark-path" d="M336.91,211.59l-15.1-18,4.86-4.08,11.79,14,13.13-11,3.31,3.94-18,15.1" style="" fill="#FFFFFF"></path><path class="watermark-path" d="M374.54,164.71a12.28,12.28,0,0,1,2.59,4.81,10.44,10.44,0,0,1,0,5,14.62,14.62,0,0,1-2.33,5,25.55,25.55,0,0,1-4.56,4.85,26.07,26.07,0,0,1-5.6,3.67,14.79,14.79,0,0,1-5.38,1.43,10.43,10.43,0,0,1-4.94-.89,13.24,13.24,0,0,1-6.87-8.18,10.48,10.48,0,0,1,0-5,14.51,14.51,0,0,1,2.36-5,25.23,25.23,0,0,1,4.57-4.89,25,25,0,0,1,5.59-3.64,14.45,14.45,0,0,1,5.35-1.43,10.31,10.31,0,0,1,4.93.92,12.22,12.22,0,0,1,4.28,3.38m-4.91,4.11a8.36,8.36,0,0,0-2-1.72,5.5,5.5,0,0,0-2.65-.85,7.72,7.72,0,0,0-3.32.57,14.49,14.49,0,0,0-4,2.52,16.72,16.72,0,0,0-2.38,2.4,10.15,10.15,0,0,0-1.39,2.24,6.71,6.71,0,0,0-.56,2.1,5.69,5.69,0,0,0,.1,1.9,6.21,6.21,0,0,0,.61,1.69,9.85,9.85,0,0,0,1,1.44,10.48,10.48,0,0,0,1.26,1.23,6.67,6.67,0,0,0,1.57.92,6.1,6.1,0,0,0,1.85.41,6.8,6.8,0,0,0,2.15-.2,11.06,11.06,0,0,0,2.45-1,17.67,17.67,0,0,0,2.77-1.94,14.39,14.39,0,0,0,3.18-3.52,7.74,7.74,0,0,0,1.14-3.17,5.54,5.54,0,0,0-.37-2.74,8.52,8.52,0,0,0-1.36-2.3" style="" fill="#FFFFFF"></path><path class="watermark-path" d="M382.66,141.76A32.3,32.3,0,0,1,388,138.1a34.12,34.12,0,0,1,5.15-2.35l3.69,4.4a19.62,19.62,0,0,0-2.37.6,22.08,22.08,0,0,0-2.61,1,26,26,0,0,0-2.77,1.49,23.9,23.9,0,0,0-2.8,2,21,21,0,0,0-2.8,2.78,13.19,13.19,0,0,0-1.64,2.51,7.29,7.29,0,0,0-.68,2.24,6.36,6.36,0,0,0,.06,2,5.8,5.8,0,0,0,.61,1.68,8.12,8.12,0,0,0,.93,1.38,9.16,9.16,0,0,0,1.08,1.08,6.56,6.56,0,0,0,1.48.9,6,6,0,0,0,1.87.48,6.76,6.76,0,0,0,2.28-.17,12,12,0,0,0,2.74-1.08,18.57,18.57,0,0,0,3.18-2.22c.58-.48,1.06-.92,1.46-1.31s.75-.77,1.05-1.12.57-.72.81-1.06l.73-1.09-1.82-2.17-5.45,4.57-3.3-3.94,10.3-8.65,7.71,9.19a29,29,0,0,1-1.67,2.43q-1,1.26-2.1,2.52c-.73.84-1.5,1.66-2.3,2.44s-1.57,1.5-2.33,2.14a31,31,0,0,1-3.59,2.61,22.15,22.15,0,0,1-3.64,1.83,15.56,15.56,0,0,1-3.62.89,11,11,0,0,1-3.49-.14,10.84,10.84,0,0,1-3.28-1.33,12.82,12.82,0,0,1-3-2.68,12.12,12.12,0,0,1-2.08-3.43A10.71,10.71,0,0,1,375,155a11.18,11.18,0,0,1,.51-3.51,15.51,15.51,0,0,1,1.57-3.43,21.44,21.44,0,0,1,2.42-3.28,30.19,30.19,0,0,1,3.14-3" style="" fill="#FFFFFF"></path><path class="watermark-path" d="M428.63,119.31a12.26,12.26,0,0,1,2.59,4.82,10.44,10.44,0,0,1,0,5,14.53,14.53,0,0,1-2.34,5,25.29,25.29,0,0,1-4.56,4.86,26,26,0,0,1-5.59,3.67,14.84,14.84,0,0,1-5.38,1.43,10.61,10.61,0,0,1-4.95-.89,12.15,12.15,0,0,1-4.3-3.37,12,12,0,0,1-2.56-4.81,10.48,10.48,0,0,1,0-5,14.39,14.39,0,0,1,2.35-5,27.89,27.89,0,0,1,10.16-8.53,14.49,14.49,0,0,1,5.36-1.43,10.27,10.27,0,0,1,4.92.92,12.21,12.21,0,0,1,4.28,3.37m-4.91,4.12a8.17,8.17,0,0,0-2-1.72,5.58,5.58,0,0,0-2.65-.86,7.86,7.86,0,0,0-3.31.58,14.49,14.49,0,0,0-4,2.52,16.21,16.21,0,0,0-2.38,2.4,9.85,9.85,0,0,0-1.4,2.24,7,7,0,0,0-.56,2.1,6,6,0,0,0,.1,1.9,6.23,6.23,0,0,0,.62,1.69,8.49,8.49,0,0,0,1,1.44,9.18,9.18,0,0,0,1.26,1.23,6.67,6.67,0,0,0,1.57.92,6,6,0,0,0,1.84.41,6.86,6.86,0,0,0,2.16-.2,11.26,11.26,0,0,0,2.45-1,17.62,17.62,0,0,0,2.76-1.94,14.67,14.67,0,0,0,3.19-3.52,7.71,7.71,0,0,0,1.13-3.17,5.53,5.53,0,0,0-.36-2.74,8.55,8.55,0,0,0-1.37-2.3" style="" fill="#FFFFFF"></path></g></svg>