<svg version="1.2" xmlns="http://www.w3.org/2000/svg" viewBox="0 0 386 108" width="380" height="108">
	<title>logo-white-svg</title>
	<style>
		.s0 { fill: #ffffff } 
	</style>
	<g>
		<g>
			<g>
				<path fill-rule="evenodd" class="s0" d="m186 91.5v1 0.2c0.1 1.1 0.2 2.4 1.1 2.9 0 0 15.8 0 28.6-0.3 12.9-0.5 40.4-0.5 44.1 0.3 3.6 0.7 4.8-0.8 5.1-1.9 0.4-1 0.4-3.9 0.4-3.9 0 0 0.4-2.6-2.9-2.6-3.3 0-11.8 0-20.6 0.4-8.8 0.4-20.2-0.6-30.5 0.4-5.5 0.6-11.7 0.5-16.3 0.3-0.3-1.1-0.7-2.4-0.9-3.7-0.2-0.6-0.2-1.3-0.2-1.9 0.1-1.7 0.3-3.3 0.3-3.5 0.6-6.9 7.4-14 14-17.3 6.5-3.3 20.6-7.2 31.2-11.1 10.6-4.1 20.8-6.3 23.6-12.5 2.1-4.7 2.8-12.2-3.5-18.3-6.2-6-15.9-8.3-29-8.4-13-0.4-25 0-33.3 5.3-8.2 5.3-9.9 16.2-10.2 19.7-0.3 3.4 0.1 4.3 0.1 4.3 0 0 0 2.5 1.6 3.1 1.1 0.5 1.3 0.6 4.4 0.1 1.9-0.3 1.5-2 1.5-5.1 0-3.2 0.2-7.9 5-14.2 4.9-6.2 18.2-6.5 24.7-6.7 7.7 0 30.4 2.4 32.1 10.8 1.8 8.4-11.3 11.4-18.7 14.2-7.4 2.9-36.3 10.3-44.3 20-4 5.1-6 8.1-6.9 11.4-0.1 0.1-0.2 0.3-0.2 0.5-0.3 1.8-0.6 4.8-0.3 9.6 0.2 2.7 0.2 5 0.1 6.5-0.1 0.2-0.1 0.3-0.1 0.4zm0 1v0.2z"/>
				<path fill-rule="evenodd" class="s0" d="m275.2 12.1c1.3 0 2.5-0.1 3.3-0.2 0.8-0.2 1.5 0.6 1.5 2.5 0 1.8-0.1 13.7-0.2 18.4-0.2 4.8-0.3 16.8-0.2 21 0.1 4.4 0.7 9.1 0.7 9.1 0 0 11.2 0.2 14.3 0.2 4.2 0.1 17.8-0.9 22 1.6 4.1 2.6 5.8 5.2 6.1 13.1 0.2 6.7-2.6 10.1-6.7 12.2-4.7 2.5-16.8 1-21.6 1.1-4.9 0.2-10.2 0.3-14.2 0.1-0.3 1.6-0.2 2.9-0.2 3.8 0 0.9-1.6 1.2-2.1 1.1-0.6-0.1-2.4 0-3.1 0-0.6 0-1.1-0.3-1.1-1v-29.2c0-5.2-0.6-26.1-0.4-30.1 0.3-4.1 0.1-15.3 0-21.4 0 0 0.6-2.3 1.9-2.3zm4.3 72.3c3 0.5 27 1.7 31 0.8 4.2-0.9 5.7-3.6 5.7-7.7 0-4.2-1.8-6.5-4.1-7.2-2.7-1-29.7-2-32.3-0.2 0 0-0.4 6.4-0.3 14.3zm12.5-55.3c-0.7-0.1-1.4-1.6-1.4-1.6 0 0 0.1-2.9 0.3-4.9 0.2-2.1 0.2-4 2.3-7.2 2.2-3.4 9.5-3.8 11.8-3.7 2.3 0.1 7.8 0.6 11.2 3.3 3.4 2.9 3.6 7.4 3.9 10.8 0.2 1.9-0.4 10.2-0.4 15.2 0 5.1-0.1 14.4 0 15.2 0.3 0.9-0.8 0.8-1.5 0.7h-3.1c-0.6-0.1-1.8-0.2-1.8-0.9 0.1-0.9 0-2.1 0-2.1 0 0-10.7 0.2-14.2-0.1-3.5-0.4-3.6 0-6.2-0.9-2.6-0.8-5.6-2.5-6.2-5.2-0.3-2.9 0.1-6.3 2.3-8.5 1.5-1.7 3.3-2.8 7.2-3.1 3.2-0.2 17.5-0.2 17.5-0.2 0 0 0.2 0.3 0.2-2.6 0-2.8 1-9.6-0.6-12.8-1.6-3.2-4.8-3.9-7.8-3.8-2.4 0.1-4.9 0.3-6.2 1.2-1.4 1-2.1 2.6-2.2 4.7-0.3 1.9-0.1 3.6 0.1 5 0.1 0.8-1 1.5-1 1.5-1.8 0.4-3.4 0.1-4.2 0zm5.6 12c-2.6 0.4-5.4 0.8-5.6 4-0.1 3.2 5.2 3.5 7.6 3.5 2.4 0.2 11.2 0.4 13.7 0.2 0-2.2 0-0.9 0-2.1v-5.7c0 0-13-0.3-15.7 0.1z"/>
				<path class="s0" d="m335.8 11.4c0 0-5.7 0.4-5.5 4.7 0.6 4.3 5.3 4.6 7.2 4.3 2-0.4 3.1-2.4 3.1-4.7 0-2.4-2-3.9-4.8-4.3zm-3.6 84.5c0.7 1 4.7 0.7 6 0.7 1.4 0 1.6-1.7 1.6-1.7 0 0-0.5-10.1-0.5-21.8 0-9.7 0.3-15.2 0.5-23 0.4-8 0-19 0-22.1 0-2.7-2.3-2.5-2.3-2.5 0 0-2.5 0-3.6 0.4-1 0.2-2.3 1.4-1.7 4.5 0.7 3.5 0.7 28 0.4 39.8-0.4 11.4-0.4 25.7-0.4 25.7z"/>
				<path class="s0" d="m362.3 12.5c0 0 0 4 0.1 9.7-5.5-0.1-11.1-0.2-11.1-0.2-4.2 0-3.8 1.6-3.8 1.6 0 0-0.2 2.7 0.3 3.5 0.4 0.9 0.7 0.7 1.8 1 0.9 0.2 7.9 0.2 12.8 0.3l0.3 14.7c0.4 13.6 0.4 43.1-0.4 47.1-0.7 3.7 0.8 5.1 1.7 5.3 1 0.5 3.6 0.5 3.6 0.5 0 0 2.4 0.4 2.4-3.1 0-3.6 0-12.6-0.4-22-0.3-9.3 0.7-21.5-0.3-32.5-0.4-3.2-0.5-6.7-0.5-10.1 4.8-0.1 13.5-0.6 14.2-0.6 1.1 0 1.4-1 1.9-1.4 0.3-0.2 0-2.2 0-3.2 0-1-1.7-1.2-1.7-1.2 0 0-6.5-0.4-11 0.1-0.6 0.1-1.9 0.1-3.4 0.1 0.2-4.6 0.5-8.1 0.5-8.1 0 0-1-2.2-2.4-2.2-1.2 0-3.8-0.4-4.6 0.7z"/>
			</g>
			<g>
				<g>
					<path fill-rule="evenodd" class="s0" d="m68.7 49.8c0 9.8-8.2 17.9-18 17.9h-28.2c-1.4 0-2.5-1.1-2.5-2.5v-41.7c0-1.4 1.1-2.5 2.5-2.5 1.4 0 2.4 1.1 2.4 2.5v39.2h25.8c7.2 0 13-5.8 13-12.9 0-7.4-5.8-13.2-13-13.2h-1.8c-1.3 0-2.5-1.2-2.5-2.5l0.2-0.1c0-0.2-0.2-0.2-0.2-0.4 0-1.3 1.2-2.5 2.5-2.5h1.8c7.2 0 13-5.8 13-13 0-7.1-5.8-13.1-13-13.1h-47.2c-1.3 0-2.5-1-2.5-2.5 0-1.3 1.2-2.5 2.5-2.5h47.2c9.8 0 18 8.2 18 18.1 0 6.9-3.8 12.7-9.3 15.9 5.5 3.1 9.3 8.9 9.3 15.8z"/>
					<path fill-rule="evenodd" class="s0" d="m130.6 1c0.7-0.8 1.7-1.2 2.8-0.8 1.2 0.3 1.7 1.1 1.7 2.3v103c0 1.5-1.2 2.5-2.5 2.5-1.3 0-2.5-1-2.5-2.5v-69.1h-19.8l-22.6 30.3c-0.9 1.2-2.4 1.4-3.5 0.5q-2-1.5-0.5-3.5l20.4-27.3h-26.3c-1.3 0-2.4-1.1-2.4-2.4 0-1.4 1.1-2.5 2.4-2.5h30zm-0.5 8.9l-16 21.5h16z"/>
				</g>
			</g>
			<path class="s0" d="m155.4 108v-108h1.4v108z"/>
		</g>
	</g>
</svg>