<svg xmlns:xlink="http://www.w3.org/1999/xlink" xmlns="http://www.w3.org/2000/svg" class="svg-bc-right-top standalone" width="134.090254335728" viewBox="82.98944876039964 181.01453159808472 134.090254335728 107.96972167048665" height="107.96972167048665" ><g data-paper-data="{&quot;isIcon&quot;:&quot;true&quot;,&quot;selectedEffects&quot;:{&quot;container&quot;:&quot;&quot;,&quot;transformation&quot;:&quot;&quot;,&quot;pattern&quot;:&quot;&quot;},&quot;fillRule&quot;:&quot;nonzero&quot;,&quot;fillRuleOriginal&quot;:&quot;nonzero&quot;,&quot;iconType&quot;:&quot;initial&quot;,&quot;rawInitialId&quot;:&quot;510&quot;,&quot;initialText&quot;:&quot;BA&quot;,&quot;iconStyle&quot;:&quot;standalone&quot;,&quot;bounds&quot;:{&quot;x&quot;:82.98944876039964,&quot;y&quot;:181.01453159808472,&quot;width&quot;:134.090254335728,&quot;height&quot;:107.96972167048665},&quot;suitableAsStandaloneIcon&quot;:true}" fill-rule="nonzero"><g data-paper-data="{&quot;isPathIcon&quot;:true}"><path d="M150.69987,230.7574c0,9.81497 -8.15198,17.96695 -17.96695,17.96695h-28.28193c-1.331,0 -2.49599,-1.164 -2.49599,-2.49499v-41.75789c0,-1.331 1.165,-2.49499 2.49599,-2.49499c1.497,0 2.49499,1.164 2.49499,2.49499v39.2619h25.78693c7.15298,0 12.97597,-5.82298 12.97597,-12.97597c0,-7.31998 -5.82298,-13.14297 -12.97597,-13.14297h-1.83c-1.331,0 -2.49599,-1.165 -2.49599,-2.49599l0.166,-0.166c0,-0.166 -0.166,-0.166 -0.166,-0.333c0,-1.331 1.165,-2.49499 2.49599,-2.49499h1.83c7.15298,0 12.97597,-5.82298 12.97597,-12.97697c0,-7.15298 -5.82298,-13.14297 -12.97597,-13.14297h-47.24798c-1.3309,0 -2.49549,-0.998 -2.49549,-2.49499c0,-1.331 1.1646,-2.49499 2.49549,-2.49499h47.24798c9.81497,0 17.96695,8.15098 17.96695,18.13295c0,6.82098 -3.82599,12.64397 -9.31598,15.80496c5.48999,3.16099 9.31598,8.98398 9.31598,15.80496z" style="" fill="#00594F"></path><path d="M212.58771,182.01253c0.665,-0.832 1.663,-1.165 2.82799,-0.832c1.165,0.333 1.664,1.164 1.664,2.32899v102.97973c0,1.497 -1.165,2.49499 -2.49599,2.49499c-1.331,0 -2.49499,-0.998 -2.49499,-2.49499v-69.04182h-19.79795l-22.62494,30.27892c-0.832,1.164 -2.32899,1.331 -3.49399,0.499c-1.331,-0.998 -1.497,-2.16299 -0.499,-3.49399l20.46295,-27.28393h-26.28593c-1.331,0 -2.49499,-1.164 -2.49499,-2.49499c0,-1.331 1.164,-2.49499 2.49499,-2.49499h29.94592zM212.08872,190.99551l-15.97096,21.46194h15.97096z" style="" fill="#00594F"></path></g></g></svg>